<svg xmlns:xlink="http://www.w3.org/1999/xlink" xmlns="http://www.w3.org/2000/svg" width="210mm" height="297mm" viewBox="0 0 210 297" preserveAspectRatio="xMinYMin" style="cursor:pointer;"><title>box</title><desc>parametric pressfit box</desc><g transform="translate(6, 6)"><title>bottom</title><path x1="-6" y1="-6" x2="106" y2="-6" joint="6 20 6 6" mill="0" style="fill:none;stroke:black;" d="M-6.00,-6.00 20.0,-6.00 20.0,-6.00 20.0,0.00 20.0,0.00 40.0,0.00 40.0,0.00 40.0,-6.00 40.0,-6.00 60.0,-6.00 60.0,-6.00 60.0,0.00 60.0,0.00 80.0,0.00 80.0,0.00 80.0,-6.00 80.0,-6.00 106,-6.00"/>

<path x1="106" y1="-6" x2="106" y2="86" joint="6 20 6 6" mill="0" style="fill:none;stroke:black;" d="M106,-6.00 106,26.7 106,26.7 100,26.7 100,26.7 100,53.3 100,53.3 106,53.3 106,53.3 106,86.0"/>

<path x1="106" y1="86" x2="-6" y2="86" joint="6 20 6 6" mill="0" style="fill:none;stroke:black;" d="M106,86.0 80.0,86.0 80.0,86.0 80.0,80.0 60.0,80.0 60.0,80.0 60.0,86.0 60.0,86.0 40.0,86.0 40.0,86.0 40.0,80.0 20.0,80.0 20.0,80.0 20.0,86.0 20.0,86.0 -6.00,86.0"/>

<path x1="-6" y1="86" x2="-6" y2="-6" joint="6 20 6 6" mill="0" style="fill:none;stroke:black;" d="M-6.00,86.0 -6.00,53.3 -6.00,53.3 1.78e-15,53.3 1.78e-15,53.3 3.55e-15,26.7 -6.00,26.7 -6.00,26.7 -6.00,-6.00"/>
</g><g transform="translate(202, 6)"><title>top</title><path x1="-6" y1="-6" x2="106" y2="-6" joint="6 20 6 6" mill="0" style="fill:none;stroke:black;" d="M-6.00,-6.00 20.0,-6.00 20.0,-6.00 20.0,0.00 20.0,0.00 40.0,0.00 40.0,0.00 40.0,-6.00 40.0,-6.00 60.0,-6.00 60.0,-6.00 60.0,0.00 60.0,0.00 80.0,0.00 80.0,0.00 80.0,-6.00 80.0,-6.00 106,-6.00"/>

<path x1="106" y1="-6" x2="106" y2="86" joint="6 20 6 6" mill="0" style="fill:none;stroke:black;" d="M106,-6.00 106,26.7 106,26.7 100,26.7 100,26.7 100,53.3 100,53.3 106,53.3 106,53.3 106,86.0"/>

<path x1="106" y1="86" x2="-6" y2="86" joint="6 20 6 6" mill="0" style="fill:none;stroke:black;" d="M106,86.0 80.0,86.0 80.0,86.0 80.0,80.0 60.0,80.0 60.0,80.0 60.0,86.0 60.0,86.0 40.0,86.0 40.0,86.0 40.0,80.0 20.0,80.0 20.0,80.0 20.0,86.0 20.0,86.0 -6.00,86.0"/>

<path x1="-6" y1="86" x2="-6" y2="-6" joint="6 20 6 6" mill="0" style="fill:none;stroke:black;" d="M-6.00,86.0 -6.00,53.3 -6.00,53.3 1.78e-15,53.3 1.78e-15,53.3 3.55e-15,26.7 -6.00,26.7 -6.00,26.7 -6.00,-6.00"/>
</g><g transform="translate(124, 6)"><title>front</title><path x1="-6" y1="-6" x2="66" y2="-6" joint="6 20 6 6" mill="0" style="fill:none;stroke:black;" d="M-6.00,-6.00 20.0,-6.00 20.0,-6.00 20.0,0.00 20.0,0.00 40.0,0.00 40.0,0.00 40.0,-6.00 40.0,-6.00 66.0,-6.00"/>

<path x1="66" y1="-6" x2="66" y2="86" joint="-6 20 6 6" mill="0" style="fill:none;stroke:black;" d="M66.0,-6.00 66.0,26.7 66.0,26.7 72.0,26.7 72.0,26.7 72.0,53.3 72.0,53.3 66.0,53.3 66.0,53.3 66.0,86.0"/>

<path x1="66" y1="86" x2="-6" y2="86" joint="6 20 6 6" mill="0" style="fill:none;stroke:black;" d="M66.0,86.0 40.0,86.0 40.0,86.0 40.0,80.0 20.0,80.0 20.0,80.0 20.0,86.0 20.0,86.0 -6.00,86.0"/>

<path x1="-6" y1="86" x2="-6" y2="-6" joint="-6 20 6 6" mill="0" style="fill:none;stroke:black;" d="M-6.00,86.0 -6.00,53.3 -12.0,53.3 -12.0,53.3 -12.0,26.7 -12.0,26.7 -6.00,26.7 -6.00,26.7 -6.00,-6.00"/>
</g><g transform="translate(320, 6)"><title>back</title><path x1="-6" y1="-6" x2="66" y2="-6" joint="6 20 6 6" mill="0" style="fill:none;stroke:black;" d="M-6.00,-6.00 20.0,-6.00 20.0,-6.00 20.0,0.00 20.0,0.00 40.0,0.00 40.0,0.00 40.0,-6.00 40.0,-6.00 66.0,-6.00"/>

<path x1="66" y1="-6" x2="66" y2="86" joint="-6 20 6 6" mill="0" style="fill:none;stroke:black;" d="M66.0,-6.00 66.0,26.7 66.0,26.7 72.0,26.7 72.0,26.7 72.0,53.3 72.0,53.3 66.0,53.3 66.0,53.3 66.0,86.0"/>

<path x1="66" y1="86" x2="-6" y2="86" joint="6 20 6 6" mill="0" style="fill:none;stroke:black;" d="M66.0,86.0 40.0,86.0 40.0,86.0 40.0,80.0 20.0,80.0 20.0,80.0 20.0,86.0 20.0,86.0 -6.00,86.0"/>

<path x1="-6" y1="86" x2="-6" y2="-6" joint="-6 20 6 6" mill="0" style="fill:none;stroke:black;" d="M-6.00,86.0 -6.00,53.3 -12.0,53.3 -12.0,53.3 -12.0,26.7 -12.0,26.7 -6.00,26.7 -6.00,26.7 -6.00,-6.00"/>
</g><g transform="translate(6, 104)"><title>left</title><path x1="0" y1="-6" x2="100" y2="-6" joint="-6 20 0 0" mill="0" style="fill:none;stroke:black;" d="M0.00,-6.00 20.0,-6.00 20.0,-6.00 20.0,-12.0 20.0,-12.0 40.0,-12.0 40.0,-12.0 40.0,-6.00 40.0,-6.00 60.0,-6.00 60.0,-6.00 60.0,-12.0 60.0,-12.0 80.0,-12.0 80.0,-12.0 80.0,-6.00 80.0,-6.00 100,-6.00"/>

<path x1="100" y1="-6" x2="100" y2="66" joint="-6 20 6 6" mill="0" style="fill:none;stroke:black;" d="M100,-6.00 100,20.0 100,20.0 106,20.0 106,20.0 106,40.0 106,40.0 100,40.0 100,40.0 100,66.0"/>

<path x1="100" y1="66" x2="0" y2="66" joint="-6 20 0 0" mill="0" style="fill:none;stroke:black;" d="M100,66.0 80.0,66.0 80.0,66.0 80.0,72.0 80.0,72.0 60.0,72.0 60.0,72.0 60.0,66.0 40.0,66.0 40.0,66.0 40.0,72.0 40.0,72.0 20.0,72.0 20.0,72.0 20.0,66.0 0.00,66.0"/>

<path x1="0" y1="66" x2="0" y2="-6" joint="-6 20 6 6" mill="0" style="fill:none;stroke:black;" d="M0.00,66.0 1.59e-15,40.0 -6.00,40.0 -6.00,40.0 -6.00,20.0 -6.00,20.0 2.82e-15,20.0 2.82e-15,20.0 4.41e-15,-6.00"/>
</g><g transform="translate(202, 104)"><title>right</title><path x1="0" y1="-6" x2="100" y2="-6" joint="-6 20 0 0" mill="0" style="fill:none;stroke:black;" d="M0.00,-6.00 20.0,-6.00 20.0,-6.00 20.0,-12.0 20.0,-12.0 40.0,-12.0 40.0,-12.0 40.0,-6.00 40.0,-6.00 60.0,-6.00 60.0,-6.00 60.0,-12.0 60.0,-12.0 80.0,-12.0 80.0,-12.0 80.0,-6.00 80.0,-6.00 100,-6.00"/>

<path x1="100" y1="-6" x2="100" y2="66" joint="-6 20 6 6" mill="0" style="fill:none;stroke:black;" d="M100,-6.00 100,20.0 100,20.0 106,20.0 106,20.0 106,40.0 106,40.0 100,40.0 100,40.0 100,66.0"/>

<path x1="100" y1="66" x2="0" y2="66" joint="-6 20 0 0" mill="0" style="fill:none;stroke:black;" d="M100,66.0 80.0,66.0 80.0,66.0 80.0,72.0 80.0,72.0 60.0,72.0 60.0,72.0 60.0,66.0 40.0,66.0 40.0,66.0 40.0,72.0 40.0,72.0 20.0,72.0 20.0,72.0 20.0,66.0 0.00,66.0"/>

<path x1="0" y1="66" x2="0" y2="-6" joint="-6 20 6 6" mill="0" style="fill:none;stroke:black;" d="M0.00,66.0 1.59e-15,40.0 -6.00,40.0 -6.00,40.0 -6.00,20.0 -6.00,20.0 2.82e-15,20.0 2.82e-15,20.0 4.41e-15,-6.00"/>
</g></svg>