<svg xmlns:xlink="http://www.w3.org/1999/xlink" xmlns="http://www.w3.org/2000/svg" width="210mm" height="297mm" viewBox="0 0 210 297" preserveAspectRatio="xMinYMin" style="cursor:pointer;"><title>ereaderbox</title><desc>parametric pressfit box</desc><g transform="translate(4, 4)"><title>bottom</title><path x1="-4" y1="-4" x2="188" y2="-4" joint="4 20 4 4" mill="0" style="fill:none;stroke:black;" d="M-4.00,-4.00 20.4,-4.00 20.4,-4.00 20.4,0.00 20.4,0.00 40.9,0.00 40.9,0.00 40.9,-4.00 40.9,-4.00 61.3,-4.00 61.3,-4.00 61.3,0.00 61.3,0.00 81.8,0.00 81.8,0.00 81.8,-4.00 81.8,-4.00 102,-4.00 102,-4.00 102,0.00 102,0.00 123,0.00 123,0.00 123,-4.00 123,-4.00 143,-4.00 143,-4.00 143,0.00 143,0.00 164,0.00 164,0.00 164,-4.00 164,-4.00 188,-4.00"/>

<path x1="188" y1="-4" x2="188" y2="139" joint="4 20 4 4" mill="0" style="fill:none;stroke:black;" d="M188,-4.00 188,19.3 188,19.3 184,19.3 184,19.3 184,38.6 184,38.6 188,38.6 188,38.6 188,57.9 188,57.9 184,57.9 184,57.9 184,77.1 184,77.1 188,77.1 188,77.1 188,96.4 188,96.4 184,96.4 184,96.4 184,116 184,116 188,116 188,116 188,139"/>

<path x1="188" y1="139" x2="-4" y2="139" joint="4 20 4 4" mill="0" style="fill:none;stroke:black;" d="M188,139 164,139 164,139 164,135 143,135 143,135 143,139 143,139 123,139 123,139 123,135 102,135 102,135 102,139 102,139 81.8,139 81.8,139 81.8,135 61.3,135 61.3,135 61.3,139 61.3,139 40.9,139 40.9,139 40.9,135 20.4,135 20.4,135 20.4,139 20.4,139 -4.00,139"/>

<path x1="-4" y1="139" x2="-4" y2="-4" joint="4 20 4 4" mill="0" style="fill:none;stroke:black;" d="M-4.00,139 -4.00,116 -4.00,116 1.33e-15,116 1.33e-15,116 2.66e-15,96.4 -4.00,96.4 -4.00,96.4 -4.00,77.1 -4.00,77.1 4.00e-15,77.1 4.00e-15,77.1 4.88e-15,57.9 -4.00,57.9 -4.00,57.9 -4.00,38.6 -4.00,38.6 6.22e-15,38.6 6.22e-15,38.6 7.55e-15,19.3 -4.00,19.3 -4.00,19.3 -4.00,-4.00"/>
</g><g transform="translate(226, 4)"><title>top</title><path x1="-4" y1="-4" x2="188" y2="-4" mill="0" style="fill:none;stroke:black;" d="M-4.00,-4.00 188,-4.00"/>

<path x1="188" y1="-4" x2="188" y2="139" mill="0" style="fill:none;stroke:black;" d="M188,-4.00 188,139"/>

<path x1="188" y1="139" x2="-4" y2="139" mill="0" style="fill:none;stroke:black;" d="M188,139 -4.00,139"/>

<path x1="-4" y1="139" x2="-4" y2="-4" mill="0" style="fill:none;stroke:black;" d="M-4.00,139 -4.00,-4.00"/>
</g><g transform="translate(200, 4)"><title>front</title><path x1="-4" y1="-4" x2="18" y2="-4" joint="4 20 4 4" mill="0" style="fill:none;stroke:black;" d="M-4.00,-4.00 18.0,-4.00"/>

<path x1="18" y1="-4" x2="18" y2="139" joint="-4 20 4 4" mill="0" style="fill:none;stroke:black;" d="M18.0,-4.00 18.0,19.3 18.0,19.3 22.0,19.3 22.0,19.3 22.0,38.6 22.0,38.6 18.0,38.6 18.0,38.6 18.0,57.9 18.0,57.9 22.0,57.9 22.0,57.9 22.0,77.1 22.0,77.1 18.0,77.1 18.0,77.1 18.0,96.4 18.0,96.4 22.0,96.4 22.0,96.4 22.0,116 22.0,116 18.0,116 18.0,116 18.0,139"/>

<path x1="18" y1="139" x2="-4" y2="139" joint="4 20 4 4" mill="0" style="fill:none;stroke:black;" d="M18.0,139 -4.00,139"/>

<path x1="-4" y1="139" x2="-4" y2="-4" mill="0" style="fill:none;stroke:black;" d="M-4.00,139 -4.00,-4.00"/>
</g><g transform="translate(421.392, 4.4)"><title>back</title><path x1="-4" y1="-4" x2="18" y2="-4" joint="4 20 4 4" mill="0" style="fill:none;stroke:black;" d="M-4.00,-4.00 18.0,-4.00"/>

<path x1="18" y1="-4" x2="18" y2="139" joint="-4 20 4 4" mill="0" style="fill:none;stroke:black;" d="M18.0,-4.00 18.0,19.3 18.0,19.3 22.0,19.3 22.0,19.3 22.0,38.6 22.0,38.6 18.0,38.6 18.0,38.6 18.0,57.9 18.0,57.9 22.0,57.9 22.0,57.9 22.0,77.1 22.0,77.1 18.0,77.1 18.0,77.1 18.0,96.4 18.0,96.4 22.0,96.4 22.0,96.4 22.0,116 22.0,116 18.0,116 18.0,116 18.0,139"/>

<path x1="18" y1="139" x2="-4" y2="139" joint="4 20 4 4" mill="0" style="fill:none;stroke:black;" d="M18.0,139 -4.00,139"/>

<path x1="-4" y1="139" x2="-4" y2="-4" mill="0" style="fill:none;stroke:black;" d="M-4.00,139 -4.00,-4.00"/>
</g><g transform="translate(4, 151)"><title>left</title><path x1="-4" y1="-4" x2="188" y2="-4" joint="-4 20 4 4" mill="0" style="fill:none;stroke:black;" d="M-4.00,-4.00 20.4,-4.00 20.4,-4.00 20.4,-8.00 20.4,-8.00 40.9,-8.00 40.9,-8.00 40.9,-4.00 40.9,-4.00 61.3,-4.00 61.3,-4.00 61.3,-8.00 61.3,-8.00 81.8,-8.00 81.8,-8.00 81.8,-4.00 81.8,-4.00 102,-4.00 102,-4.00 102,-8.00 102,-8.00 123,-8.00 123,-8.00 123,-4.00 123,-4.00 143,-4.00 143,-4.00 143,-8.00 143,-8.00 164,-8.00 164,-8.00 164,-4.00 164,-4.00 188,-4.00"/>

<path x1="188" y1="-4" x2="188" y2="18" joint="-4 20 4 4" mill="0" style="fill:none;stroke:black;" d="M188,-4.00 188,18.0"/>

<path x1="188" y1="18" x2="-4" y2="18" mill="0" style="fill:none;stroke:black;" d="M188,18.0 -4.00,18.0"/>

<path x1="-4" y1="18" x2="-4" y2="-4" joint="-4 20 4 4" mill="0" style="fill:none;stroke:black;" d="M-4.00,18.0 -4.00,-4.00"/>
</g><g transform="translate(226, 151)"><title>right</title><path x1="-4" y1="-4" x2="188" y2="-4" joint="-4 20 4 4" mill="0" style="fill:none;stroke:black;" d="M-4.00,-4.00 20.4,-4.00 20.4,-4.00 20.4,-8.00 20.4,-8.00 40.9,-8.00 40.9,-8.00 40.9,-4.00 40.9,-4.00 61.3,-4.00 61.3,-4.00 61.3,-8.00 61.3,-8.00 81.8,-8.00 81.8,-8.00 81.8,-4.00 81.8,-4.00 102,-4.00 102,-4.00 102,-8.00 102,-8.00 123,-8.00 123,-8.00 123,-4.00 123,-4.00 143,-4.00 143,-4.00 143,-8.00 143,-8.00 164,-8.00 164,-8.00 164,-4.00 164,-4.00 188,-4.00"/>

<path x1="188" y1="-4" x2="188" y2="18" joint="-4 20 4 4" mill="0" style="fill:none;stroke:black;" d="M188,-4.00 188,18.0"/>

<path x1="188" y1="18" x2="-4" y2="18" mill="0" style="fill:none;stroke:black;" d="M188,18.0 -4.00,18.0"/>

<path x1="-4" y1="18" x2="-4" y2="-4" joint="-4 20 4 4" mill="0" style="fill:none;stroke:black;" d="M-4.00,18.0 -4.00,-4.00"/>
</g></svg>