<svg xmlns:xlink="http://www.w3.org/1999/xlink" xmlns="http://www.w3.org/2000/svg" width="1000mm" height="297mm" viewBox="0 0 1000 297" preserveAspectRatio="xMinYMin" style="cursor:pointer;"><title>grassrootsbox2</title><desc>plexiglass pressfit box</desc><g transform="translate(-202, 209)"><title>bottom</title><path x1="-4" y1="-4" x2="1004" y2="-4" joint="4 10 4 4" mill="0" style="fill:none;stroke:black;" d="M-4.00,-4.00 10.1,-4.00 10.1,-4.00 10.1,0.00 10.1,0.00 20.2,0.00 20.2,0.00 20.2,-4.00 20.2,-4.00 30.3,-4.00 30.3,-4.00 30.3,0.00 30.3,0.00 40.4,0.00 40.4,0.00 40.4,-4.00 40.4,-4.00 50.5,-4.00 50.5,-4.00 50.5,0.00 50.5,0.00 60.6,0.00 60.6,0.00 60.6,-4.00 60.6,-4.00 70.7,-4.00 70.7,-4.00 70.7,0.00 70.7,0.00 80.8,0.00 80.8,0.00 80.8,-4.00 80.8,-4.00 90.9,-4.00 90.9,-4.00 90.9,0.00 90.9,0.00 101,0.00 101,0.00 101,-4.00 101,-4.00 111,-4.00 111,-4.00 111,0.00 111,0.00 121,0.00 121,0.00 121,-4.00 121,-4.00 131,-4.00 131,-4.00 131,0.00 131,0.00 141,0.00 141,0.00 141,-4.00 141,-4.00 152,-4.00 152,-4.00 152,0.00 152,0.00 162,0.00 162,0.00 162,-4.00 162,-4.00 172,-4.00 172,-4.00 172,0.00 172,0.00 182,0.00 182,0.00 182,-4.00 182,-4.00 192,-4.00 192,-4.00 192,0.00 192,0.00 202,0.00 202,0.00 202,-4.00 202,-4.00 212,-4.00 212,-4.00 212,0.00 212,0.00 222,0.00 222,0.00 222,-4.00 222,-4.00 232,-4.00 232,-4.00 232,0.00 232,0.00 242,0.00 242,0.00 242,-4.00 242,-4.00 253,-4.00 253,-4.00 253,0.00 253,0.00 263,0.00 263,0.00 263,-4.00 263,-4.00 273,-4.00 273,-4.00 273,0.00 273,0.00 283,0.00 283,0.00 283,-4.00 283,-4.00 293,-4.00 293,-4.00 293,0.00 293,0.00 303,0.00 303,0.00 303,-4.00 303,-4.00 313,-4.00 313,-4.00 313,0.00 313,0.00 323,0.00 323,0.00 323,-4.00 323,-4.00 333,-4.00 333,-4.00 333,0.00 333,0.00 343,0.00 343,0.00 343,-4.00 343,-4.00 354,-4.00 354,-4.00 354,0.00 354,0.00 364,0.00 364,0.00 364,-4.00 364,-4.00 374,-4.00 374,-4.00 374,0.00 374,0.00 384,0.00 384,0.00 384,-4.00 384,-4.00 394,-4.00 394,-4.00 394,0.00 394,0.00 404,0.00 404,0.00 404,-4.00 404,-4.00 414,-4.00 414,-4.00 414,0.00 414,0.00 424,0.00 424,0.00 424,-4.00 424,-4.00 434,-4.00 434,-4.00 434,0.00 434,0.00 444,0.00 444,0.00 444,-4.00 444,-4.00 455,-4.00 455,-4.00 455,0.00 455,0.00 465,0.00 465,0.00 465,-4.00 465,-4.00 475,-4.00 475,-4.00 475,0.00 475,0.00 485,0.00 485,0.00 485,-4.00 485,-4.00 495,-4.00 495,-4.00 495,0.00 495,0.00 505,0.00 505,0.00 505,-4.00 505,-4.00 515,-4.00 515,-4.00 515,0.00 515,0.00 525,0.00 525,0.00 525,-4.00 525,-4.00 535,-4.00 535,-4.00 535,0.00 535,0.00 545,0.00 545,0.00 545,-4.00 545,-4.00 556,-4.00 556,-4.00 556,0.00 556,0.00 566,0.00 566,0.00 566,-4.00 566,-4.00 576,-4.00 576,-4.00 576,0.00 576,0.00 586,0.00 586,0.00 586,-4.00 586,-4.00 596,-4.00 596,-4.00 596,0.00 596,0.00 606,0.00 606,0.00 606,-4.00 606,-4.00 616,-4.00 616,-4.00 616,0.00 616,0.00 626,0.00 626,0.00 626,-4.00 626,-4.00 636,-4.00 636,-4.00 636,0.00 636,0.00 646,0.00 646,0.00 646,-4.00 646,-4.00 657,-4.00 657,-4.00 657,0.00 657,0.00 667,0.00 667,0.00 667,-4.00 667,-4.00 677,-4.00 677,-4.00 677,0.00 677,0.00 687,0.00 687,0.00 687,-4.00 687,-4.00 697,-4.00 697,-4.00 697,0.00 697,0.00 707,0.00 707,0.00 707,-4.00 707,-4.00 717,-4.00 717,-4.00 717,0.00 717,0.00 727,0.00 727,0.00 727,-4.00 727,-4.00 737,-4.00 737,-4.00 737,0.00 737,0.00 747,0.00 747,0.00 747,-4.00 747,-4.00 758,-4.00 758,-4.00 758,0.00 758,0.00 768,0.00 768,0.00 768,-4.00 768,-4.00 778,-4.00 778,-4.00 778,0.00 778,0.00 788,0.00 788,0.00 788,-4.00 788,-4.00 798,-4.00 798,-4.00 798,0.00 798,0.00 808,0.00 808,0.00 808,-4.00 808,-4.00 818,-4.00 818,-4.00 818,0.00 818,0.00 828,0.00 828,0.00 828,-4.00 828,-4.00 838,-4.00 838,-4.00 838,0.00 838,0.00 848,0.00 848,0.00 848,-4.00 848,-4.00 859,-4.00 859,-4.00 859,0.00 859,0.00 869,0.00 869,0.00 869,-4.00 869,-4.00 879,-4.00 879,-4.00 879,0.00 879,0.00 889,0.00 889,0.00 889,-4.00 889,-4.00 899,-4.00 899,-4.00 899,0.00 899,0.00 909,0.00 909,0.00 909,-4.00 909,-4.00 919,-4.00 919,-4.00 919,0.00 919,0.00 929,0.00 929,0.00 929,-4.00 929,-4.00 939,-4.00 939,-4.00 939,0.00 939,0.00 949,0.00 949,0.00 949,-4.00 949,-4.00 960,-4.00 960,-4.00 960,0.00 960,0.00 970,0.00 970,0.00 970,-4.00 970,-4.00 980,-4.00 980,-4.00 980,0.00 980,0.00 990,0.00 990,0.00 990,-4.00 990,-4.00 1.00e+3,-4.00"/>

<path x1="1004" y1="-4" x2="1004" y2="44" joint="4 10 4 4" mill="0" style="fill:none;stroke:black;" d="M1.00e+3,-4.00 1.00e+3,13.3 NaN,NaN 1.00e+3,13.3 NaN,NaN 1.00e+3,26.7 NaN,NaN 1.00e+3,26.7 NaN,NaN 1.00e+3,44.0"/>

<path x1="1004" y1="44" x2="-4" y2="44" joint="4 10 4 4" mill="0" style="fill:none;stroke:black;" d="M1.00e+3,44.0 990,44.0 990,44.0 990,40.0 980,40.0 980,40.0 980,44.0 980,44.0 970,44.0 970,44.0 970,40.0 960,40.0 960,40.0 960,44.0 960,44.0 949,44.0 949,44.0 949,40.0 939,40.0 939,40.0 939,44.0 939,44.0 929,44.0 929,44.0 929,40.0 919,40.0 919,40.0 919,44.0 919,44.0 909,44.0 909,44.0 909,40.0 899,40.0 899,40.0 899,44.0 899,44.0 889,44.0 889,44.0 889,40.0 879,40.0 879,40.0 879,44.0 879,44.0 869,44.0 869,44.0 869,40.0 859,40.0 859,40.0 859,44.0 859,44.0 848,44.0 848,44.0 848,40.0 838,40.0 838,40.0 838,44.0 838,44.0 828,44.0 828,44.0 828,40.0 818,40.0 818,40.0 818,44.0 818,44.0 808,44.0 808,44.0 808,40.0 798,40.0 798,40.0 798,44.0 798,44.0 788,44.0 788,44.0 788,40.0 778,40.0 778,40.0 778,44.0 778,44.0 768,44.0 768,44.0 768,40.0 758,40.0 758,40.0 758,44.0 758,44.0 747,44.0 747,44.0 747,40.0 737,40.0 737,40.0 737,44.0 737,44.0 727,44.0 727,44.0 727,40.0 717,40.0 717,40.0 717,44.0 717,44.0 707,44.0 707,44.0 707,40.0 697,40.0 697,40.0 697,44.0 697,44.0 687,44.0 687,44.0 687,40.0 677,40.0 677,40.0 677,44.0 677,44.0 667,44.0 667,44.0 667,40.0 657,40.0 657,40.0 657,44.0 657,44.0 646,44.0 646,44.0 646,40.0 636,40.0 636,40.0 636,44.0 636,44.0 626,44.0 626,44.0 626,40.0 616,40.0 616,40.0 616,44.0 616,44.0 606,44.0 606,44.0 606,40.0 596,40.0 596,40.0 596,44.0 596,44.0 586,44.0 586,44.0 586,40.0 576,40.0 576,40.0 576,44.0 576,44.0 566,44.0 566,44.0 566,40.0 556,40.0 556,40.0 556,44.0 556,44.0 545,44.0 545,44.0 545,40.0 535,40.0 535,40.0 535,44.0 535,44.0 525,44.0 525,44.0 525,40.0 515,40.0 515,40.0 515,44.0 515,44.0 505,44.0 505,44.0 505,40.0 495,40.0 495,40.0 495,44.0 495,44.0 485,44.0 485,44.0 485,40.0 475,40.0 475,40.0 475,44.0 475,44.0 465,44.0 465,44.0 465,40.0 455,40.0 455,40.0 455,44.0 455,44.0 444,44.0 444,44.0 444,40.0 434,40.0 434,40.0 434,44.0 434,44.0 424,44.0 424,44.0 424,40.0 414,40.0 414,40.0 414,44.0 414,44.0 404,44.0 404,44.0 404,40.0 394,40.0 394,40.0 394,44.0 394,44.0 384,44.0 384,44.0 384,40.0 374,40.0 374,40.0 374,44.0 374,44.0 364,44.0 364,44.0 364,40.0 354,40.0 354,40.0 354,44.0 354,44.0 343,44.0 343,44.0 343,40.0 333,40.0 333,40.0 333,44.0 333,44.0 323,44.0 323,44.0 323,40.0 313,40.0 313,40.0 313,44.0 313,44.0 303,44.0 303,44.0 303,40.0 293,40.0 293,40.0 293,44.0 293,44.0 283,44.0 283,44.0 283,40.0 273,40.0 273,40.0 273,44.0 273,44.0 263,44.0 263,44.0 263,40.0 253,40.0 253,40.0 253,44.0 253,44.0 242,44.0 242,44.0 242,40.0 232,40.0 232,40.0 232,44.0 232,44.0 222,44.0 222,44.0 222,40.0 212,40.0 212,40.0 212,44.0 212,44.0 202,44.0 202,44.0 202,40.0 192,40.0 192,40.0 192,44.0 192,44.0 182,44.0 182,44.0 182,40.0 172,40.0 172,40.0 172,44.0 172,44.0 162,44.0 162,44.0 162,40.0 152,40.0 152,40.0 152,44.0 152,44.0 141,44.0 141,44.0 141,40.0 131,40.0 131,40.0 131,44.0 131,44.0 121,44.0 121,44.0 121,40.0 111,40.0 111,40.0 111,44.0 111,44.0 101,44.0 101,44.0 101,40.0 90.9,40.0 90.9,40.0 90.9,44.0 90.9,44.0 80.8,44.0 80.8,44.0 80.8,40.0 70.7,40.0 70.7,40.0 70.7,44.0 70.7,44.0 60.6,44.0 60.6,44.0 60.6,40.0 50.5,40.0 50.5,40.0 50.5,44.0 50.5,44.0 40.4,44.0 40.4,44.0 40.4,40.0 30.3,40.0 30.3,40.0 30.3,44.0 30.3,44.0 20.2,44.0 20.2,44.0 20.2,40.0 10.1,40.0 10.1,40.0 10.1,44.0 10.1,44.0 -4.00,44.0"/>

<path x1="-4" y1="44" x2="-4" y2="-4" joint="4 10 4 4" mill="0" style="fill:none;stroke:black;" d="M-4.00,44.0 -4.00,26.7 -4.00,26.7 8.88e-16,26.7 8.88e-16,26.7 1.78e-15,13.3 -4.00,13.3 -4.00,13.3 -4.00,-4.00"/>

<circle cx="200" cy="21.5" r="5" style="fill:none; stroke:black;"/>
<circle cx="400" cy="21.5" r="5" style="fill:none; stroke:black;"/>
<circle cx="600" cy="21.5" r="5" style="fill:none; stroke:black;"/>
<circle cx="800" cy="21.5" r="5" style="fill:none; stroke:black;"/></g><g transform="translate(-4, -152)"><title>front</title><path x1="-4" y1="-4" x2="124" y2="-4" joint="4 10 4 4" mill="0" style="fill:none;stroke:black;" d="M-4.00,-4.00 10.9,-4.00 10.9,-4.00 10.9,0.00 10.9,0.00 21.8,0.00 21.8,0.00 21.8,-4.00 21.8,-4.00 32.7,-4.00 32.7,-4.00 32.7,0.00 32.7,0.00 43.6,0.00 43.6,0.00 43.6,-4.00 43.6,-4.00 54.5,-4.00 54.5,-4.00 54.5,0.00 54.5,0.00 65.5,0.00 65.5,0.00 65.5,-4.00 65.5,-4.00 76.4,-4.00 76.4,-4.00 76.4,0.00 76.4,0.00 87.3,0.00 87.3,0.00 87.3,-4.00 87.3,-4.00 98.2,-4.00 98.2,-4.00 98.2,0.00 98.2,0.00 109,0.00 109,0.00 109,-4.00 109,-4.00 124,-4.00"/>

<path x1="124" y1="-4" x2="124" y2="44" mill="0" style="fill:none;stroke:black;" d="M124,-4.00 124,44.0"/>

<path x1="124" y1="44" x2="-4" y2="44" joint="4 10 4 4" mill="0" style="fill:none;stroke:black;" d="M124,44.0 109,44.0 109,44.0 109,40.0 98.2,40.0 98.2,40.0 98.2,44.0 98.2,44.0 87.3,44.0 87.3,44.0 87.3,40.0 76.4,40.0 76.4,40.0 76.4,44.0 76.4,44.0 65.5,44.0 65.5,44.0 65.5,40.0 54.5,40.0 54.5,40.0 54.5,44.0 54.5,44.0 43.6,44.0 43.6,44.0 43.6,40.0 32.7,40.0 32.7,40.0 32.7,44.0 32.7,44.0 21.8,44.0 21.8,44.0 21.8,40.0 10.9,40.0 10.9,40.0 10.9,44.0 10.9,44.0 -4.00,44.0"/>

<path x1="-4" y1="44" x2="-4" y2="-4" joint="-4 10 4 4" mill="0" style="fill:none;stroke:black;" d="M-4.00,44.0 -4.00,26.7 -8.00,26.7 -8.00,26.7 -8.00,13.3 -8.00,13.3 -4.00,13.3 -4.00,13.3 -4.00,-4.00"/>
</g><g transform="translate(170, -150)"><title>back</title><path x1="-4" y1="-4" x2="124" y2="-4" joint="4 10 4 4" mill="0" style="fill:none;stroke:black;" d="M-4.00,-4.00 10.9,-4.00 10.9,-4.00 10.9,0.00 10.9,0.00 21.8,0.00 21.8,0.00 21.8,-4.00 21.8,-4.00 32.7,-4.00 32.7,-4.00 32.7,0.00 32.7,0.00 43.6,0.00 43.6,0.00 43.6,-4.00 43.6,-4.00 54.5,-4.00 54.5,-4.00 54.5,0.00 54.5,0.00 65.5,0.00 65.5,0.00 65.5,-4.00 65.5,-4.00 76.4,-4.00 76.4,-4.00 76.4,0.00 76.4,0.00 87.3,0.00 87.3,0.00 87.3,-4.00 87.3,-4.00 98.2,-4.00 98.2,-4.00 98.2,0.00 98.2,0.00 109,0.00 109,0.00 109,-4.00 109,-4.00 124,-4.00"/>

<path x1="124" y1="-4" x2="124" y2="44" mill="0" style="fill:none;stroke:black;" d="M124,-4.00 124,44.0"/>

<path x1="124" y1="44" x2="-4" y2="44" joint="4 10 4 4" mill="0" style="fill:none;stroke:black;" d="M124,44.0 109,44.0 109,44.0 109,40.0 98.2,40.0 98.2,40.0 98.2,44.0 98.2,44.0 87.3,44.0 87.3,44.0 87.3,40.0 76.4,40.0 76.4,40.0 76.4,44.0 76.4,44.0 65.5,44.0 65.5,44.0 65.5,40.0 54.5,40.0 54.5,40.0 54.5,44.0 54.5,44.0 43.6,44.0 43.6,44.0 43.6,40.0 32.7,40.0 32.7,40.0 32.7,44.0 32.7,44.0 21.8,44.0 21.8,44.0 21.8,40.0 10.9,40.0 10.9,40.0 10.9,44.0 10.9,44.0 -4.00,44.0"/>

<path x1="-4" y1="44" x2="-4" y2="-4" joint="-4 10 4 4" mill="0" style="fill:none;stroke:black;" d="M-4.00,44.0 -4.00,26.7 -8.00,26.7 -8.00,26.7 -8.00,13.3 -8.00,13.3 -4.00,13.3 -4.00,13.3 -4.00,-4.00"/>
</g><g transform="translate(-208, -98)"><title>left</title><path x1="-4" y1="-4" x2="1004" y2="-4" mill="0" style="fill:none;stroke:black;" d="M-4.00,-4.00 1.00e+3,-4.00"/>

<path x1="1004" y1="-4" x2="1004" y2="124" joint="-4 10 4 4" mill="0" style="fill:none;stroke:black;" d="M1.00e+3,-4.00 1.00e+3,10.9 1.00e+3,10.9 1.01e+3,10.9 1.01e+3,10.9 1.01e+3,21.8 1.01e+3,21.8 1.00e+3,21.8 1.00e+3,21.8 1.00e+3,32.7 1.00e+3,32.7 1.01e+3,32.7 1.01e+3,32.7 1.01e+3,43.6 1.01e+3,43.6 1.00e+3,43.6 1.00e+3,43.6 1.00e+3,54.5 1.00e+3,54.5 1.01e+3,54.5 1.01e+3,54.5 1.01e+3,65.5 1.01e+3,65.5 1.00e+3,65.5 1.00e+3,65.5 1.00e+3,76.4 1.00e+3,76.4 1.01e+3,76.4 1.01e+3,76.4 1.01e+3,87.3 1.01e+3,87.3 1.00e+3,87.3 1.00e+3,87.3 1.00e+3,98.2 1.00e+3,98.2 1.01e+3,98.2 1.01e+3,98.2 1.01e+3,109 1.01e+3,109 1.00e+3,109 1.00e+3,109 1.00e+3,124"/>

<path x1="1004" y1="124" x2="-4" y2="124" joint="-4 10 4 4" mill="0" style="fill:none;stroke:black;" d="M1.00e+3,124 990,124 990,124 990,128 990,128 980,128 980,128 980,124 970,124 970,124 970,128 970,128 960,128 960,128 960,124 949,124 949,124 949,128 949,128 939,128 939,128 939,124 929,124 929,124 929,128 929,128 919,128 919,128 919,124 909,124 909,124 909,128 909,128 899,128 899,128 899,124 889,124 889,124 889,128 889,128 879,128 879,128 879,124 869,124 869,124 869,128 869,128 859,128 859,128 859,124 848,124 848,124 848,128 848,128 838,128 838,128 838,124 828,124 828,124 828,128 828,128 818,128 818,128 818,124 808,124 808,124 808,128 808,128 798,128 798,128 798,124 788,124 788,124 788,128 788,128 778,128 778,128 778,124 768,124 768,124 768,128 768,128 758,128 758,128 758,124 747,124 747,124 747,128 747,128 737,128 737,128 737,124 727,124 727,124 727,128 727,128 717,128 717,128 717,124 707,124 707,124 707,128 707,128 697,128 697,128 697,124 687,124 687,124 687,128 687,128 677,128 677,128 677,124 667,124 667,124 667,128 667,128 657,128 657,128 657,124 646,124 646,124 646,128 646,128 636,128 636,128 636,124 626,124 626,124 626,128 626,128 616,128 616,128 616,124 606,124 606,124 606,128 606,128 596,128 596,128 596,124 586,124 586,124 586,128 586,128 576,128 576,128 576,124 566,124 566,124 566,128 566,128 556,128 556,128 556,124 545,124 545,124 545,128 545,128 535,128 535,128 535,124 525,124 525,124 525,128 525,128 515,128 515,128 515,124 505,124 505,124 505,128 505,128 495,128 495,128 495,124 485,124 485,124 485,128 485,128 475,128 475,128 475,124 465,124 465,124 465,128 465,128 455,128 455,128 455,124 444,124 444,124 444,128 444,128 434,128 434,128 434,124 424,124 424,124 424,128 424,128 414,128 414,128 414,124 404,124 404,124 404,128 404,128 394,128 394,128 394,124 384,124 384,124 384,128 384,128 374,128 374,128 374,124 364,124 364,124 364,128 364,128 354,128 354,128 354,124 343,124 343,124 343,128 343,128 333,128 333,128 333,124 323,124 323,124 323,128 323,128 313,128 313,128 313,124 303,124 303,124 303,128 303,128 293,128 293,128 293,124 283,124 283,124 283,128 283,128 273,128 273,128 273,124 263,124 263,124 263,128 263,128 253,128 253,128 253,124 242,124 242,124 242,128 242,128 232,128 232,128 232,124 222,124 222,124 222,128 222,128 212,128 212,128 212,124 202,124 202,124 202,128 202,128 192,128 192,128 192,124 182,124 182,124 182,128 182,128 172,128 172,128 172,124 162,124 162,124 162,128 162,128 152,128 152,128 152,124 141,124 141,124 141,128 141,128 131,128 131,128 131,124 121,124 121,124 121,128 121,128 111,128 111,128 111,124 101,124 101,124 101,128 101,128 90.9,128 90.9,128 90.9,124 80.8,124 80.8,124 80.8,128 80.8,128 70.7,128 70.7,128 70.7,124 60.6,124 60.6,124 60.6,128 60.6,128 50.5,128 50.5,128 50.5,124 40.4,124 40.4,124 40.4,128 40.4,128 30.3,128 30.3,128 30.3,124 20.2,124 20.2,124 20.2,128 20.2,128 10.1,128 10.1,128 10.1,124 -4.00,124"/>

<path x1="-4" y1="124" x2="-4" y2="-4" joint="-4 10 4 4" mill="0" style="fill:none;stroke:black;" d="M-4.00,124 -4.00,109 -8.00,109 -8.00,109 -8.00,98.2 -8.00,98.2 -4.00,98.2 -4.00,98.2 -4.00,87.3 -8.00,87.3 -8.00,87.3 -8.00,76.4 -8.00,76.4 -4.00,76.4 -4.00,76.4 -4.00,65.5 -8.00,65.5 -8.00,65.5 -8.00,54.5 -8.00,54.5 -4.00,54.5 -4.00,54.5 -4.00,43.6 -8.00,43.6 -8.00,43.6 -8.00,32.7 -8.00,32.7 -4.00,32.7 -4.00,32.7 -4.00,21.8 -8.00,21.8 -8.00,21.8 -8.00,10.9 -8.00,10.9 -4.00,10.9 -4.00,10.9 -4.00,-4.00"/>
</g><g transform="translate(-172, 61.83)"><title>right</title><path x1="-4" y1="-4" x2="1004" y2="-4" mill="0" style="fill:none;stroke:black;" d="M-4.00,-4.00 1.00e+3,-4.00"/>

<path x1="1004" y1="-4" x2="1004" y2="124" joint="-4 10 4 4" mill="0" style="fill:none;stroke:black;" d="M1.00e+3,-4.00 1.00e+3,10.9 1.00e+3,10.9 1.01e+3,10.9 1.01e+3,10.9 1.01e+3,21.8 1.01e+3,21.8 1.00e+3,21.8 1.00e+3,21.8 1.00e+3,32.7 1.00e+3,32.7 1.01e+3,32.7 1.01e+3,32.7 1.01e+3,43.6 1.01e+3,43.6 1.00e+3,43.6 1.00e+3,43.6 1.00e+3,54.5 1.00e+3,54.5 1.01e+3,54.5 1.01e+3,54.5 1.01e+3,65.5 1.01e+3,65.5 1.00e+3,65.5 1.00e+3,65.5 1.00e+3,76.4 1.00e+3,76.4 1.01e+3,76.4 1.01e+3,76.4 1.01e+3,87.3 1.01e+3,87.3 1.00e+3,87.3 1.00e+3,87.3 1.00e+3,98.2 1.00e+3,98.2 1.01e+3,98.2 1.01e+3,98.2 1.01e+3,109 1.01e+3,109 1.00e+3,109 1.00e+3,109 1.00e+3,124"/>

<path x1="1004" y1="124" x2="-4" y2="124" joint="-4 10 4 4" mill="0" style="fill:none;stroke:black;" d="M1.00e+3,124 990,124 990,124 990,128 990,128 980,128 980,128 980,124 970,124 970,124 970,128 970,128 960,128 960,128 960,124 949,124 949,124 949,128 949,128 939,128 939,128 939,124 929,124 929,124 929,128 929,128 919,128 919,128 919,124 909,124 909,124 909,128 909,128 899,128 899,128 899,124 889,124 889,124 889,128 889,128 879,128 879,128 879,124 869,124 869,124 869,128 869,128 859,128 859,128 859,124 848,124 848,124 848,128 848,128 838,128 838,128 838,124 828,124 828,124 828,128 828,128 818,128 818,128 818,124 808,124 808,124 808,128 808,128 798,128 798,128 798,124 788,124 788,124 788,128 788,128 778,128 778,128 778,124 768,124 768,124 768,128 768,128 758,128 758,128 758,124 747,124 747,124 747,128 747,128 737,128 737,128 737,124 727,124 727,124 727,128 727,128 717,128 717,128 717,124 707,124 707,124 707,128 707,128 697,128 697,128 697,124 687,124 687,124 687,128 687,128 677,128 677,128 677,124 667,124 667,124 667,128 667,128 657,128 657,128 657,124 646,124 646,124 646,128 646,128 636,128 636,128 636,124 626,124 626,124 626,128 626,128 616,128 616,128 616,124 606,124 606,124 606,128 606,128 596,128 596,128 596,124 586,124 586,124 586,128 586,128 576,128 576,128 576,124 566,124 566,124 566,128 566,128 556,128 556,128 556,124 545,124 545,124 545,128 545,128 535,128 535,128 535,124 525,124 525,124 525,128 525,128 515,128 515,128 515,124 505,124 505,124 505,128 505,128 495,128 495,128 495,124 485,124 485,124 485,128 485,128 475,128 475,128 475,124 465,124 465,124 465,128 465,128 455,128 455,128 455,124 444,124 444,124 444,128 444,128 434,128 434,128 434,124 424,124 424,124 424,128 424,128 414,128 414,128 414,124 404,124 404,124 404,128 404,128 394,128 394,128 394,124 384,124 384,124 384,128 384,128 374,128 374,128 374,124 364,124 364,124 364,128 364,128 354,128 354,128 354,124 343,124 343,124 343,128 343,128 333,128 333,128 333,124 323,124 323,124 323,128 323,128 313,128 313,128 313,124 303,124 303,124 303,128 303,128 293,128 293,128 293,124 283,124 283,124 283,128 283,128 273,128 273,128 273,124 263,124 263,124 263,128 263,128 253,128 253,128 253,124 242,124 242,124 242,128 242,128 232,128 232,128 232,124 222,124 222,124 222,128 222,128 212,128 212,128 212,124 202,124 202,124 202,128 202,128 192,128 192,128 192,124 182,124 182,124 182,128 182,128 172,128 172,128 172,124 162,124 162,124 162,128 162,128 152,128 152,128 152,124 141,124 141,124 141,128 141,128 131,128 131,128 131,124 121,124 121,124 121,128 121,128 111,128 111,128 111,124 101,124 101,124 101,128 101,128 90.9,128 90.9,128 90.9,124 80.8,124 80.8,124 80.8,128 80.8,128 70.7,128 70.7,128 70.7,124 60.6,124 60.6,124 60.6,128 60.6,128 50.5,128 50.5,128 50.5,124 40.4,124 40.4,124 40.4,128 40.4,128 30.3,128 30.3,128 30.3,124 20.2,124 20.2,124 20.2,128 20.2,128 10.1,128 10.1,128 10.1,124 -4.00,124"/>

<path x1="-4" y1="124" x2="-4" y2="-4" joint="-4 10 4 4" mill="0" style="fill:none;stroke:black;" d="M-4.00,124 -4.00,109 -8.00,109 -8.00,109 -8.00,98.2 -8.00,98.2 -4.00,98.2 -4.00,98.2 -4.00,87.3 -8.00,87.3 -8.00,87.3 -8.00,76.4 -8.00,76.4 -4.00,76.4 -4.00,76.4 -4.00,65.5 -8.00,65.5 -8.00,65.5 -8.00,54.5 -8.00,54.5 -4.00,54.5 -4.00,54.5 -4.00,43.6 -8.00,43.6 -8.00,43.6 -8.00,32.7 -8.00,32.7 -4.00,32.7 -4.00,32.7 -4.00,21.8 -8.00,21.8 -8.00,21.8 -8.00,10.9 -8.00,10.9 -4.00,10.9 -4.00,10.9 -4.00,-4.00"/>
</g></svg>