<svg xmlns:xlink="http://www.w3.org/1999/xlink" xmlns="http://www.w3.org/2000/svg" width="185mm" height="170mm" viewBox="0 0 185 170" preserveAspectRatio="xMinYMin" style="cursor:pointer;"><title>UniversalJoint</title><desc>Pan-tilt or X-Y joint using two servo's. This joint can be used as camera setup, or as joint in a robot snake, etc.</desc><g transform="translate(8.69, 71)"><title>bodyTop</title><path d="m 0,0 35,0" id="path30514" style="fill: none; stroke: rgb(255, 0, 0); stroke-width: 0.2; stroke-linecap: butt; stroke-linejoin: miter; stroke-miterlimit: 4; stroke-opacity: 1; stroke-dasharray: none;"/>
<path d="m 0,60 35,0" id="path30514" style="fill: none; stroke: rgb(255, 0, 0); stroke-width: 0.2; stroke-linecap: butt; stroke-linejoin: miter; stroke-miterlimit: 4; stroke-opacity: 1; stroke-dasharray: none;"/>

<circle cx="17.5" cy="49.5" r="1.5" id="path30514" style="fill: none; stroke: rgb(255, 0, 0); stroke-width: 0.2; stroke-linecap: butt; stroke-linejoin: miter; stroke-miterlimit: 4; stroke-opacity: 1; stroke-dasharray: none;"/>

<circle cx="17.5" cy="39" r="1.5" id="path30514" style="fill: none; stroke: rgb(255, 0, 0); stroke-width: 0.2; stroke-linecap: butt; stroke-linejoin: miter; stroke-miterlimit: 4; stroke-opacity: 1; stroke-dasharray: none;"/><g transform="translate(0)"><title>slot</title><path d="m 0,0 0,4 -3,0 0,5 3,0 0,5 3.4000000000000004,0 0,-0.8 1.6,0 0,0.8 2,0 0,2 -2,0 0,0.8 -1.6,0 0,-0.8 -3.4000000000000004,0 0,5 -3,0 0,5 3,0 0,4" id="path30514" style="fill: none; stroke: rgb(255, 0, 0); stroke-width: 0.2; stroke-linecap: butt; stroke-linejoin: miter; stroke-miterlimit: 4; stroke-opacity: 1; stroke-dasharray: none;"/></g><g transform="translate(0, 30)"><title>slot2</title><path d="m 0,0 0,4 -3,0 0,5 3,0 0,5 3.4000000000000004,0 0,-0.8 1.6,0 0,0.8 2,0 0,2 -2,0 0,0.8 -1.6,0 0,-0.8 -3.4000000000000004,0 0,5 -3,0 0,5 3,0 0,4" id="path30514" style="fill: none; stroke: rgb(255, 0, 0); stroke-width: 0.2; stroke-linecap: butt; stroke-linejoin: miter; stroke-miterlimit: 4; stroke-opacity: 1; stroke-dasharray: none;"/></g><g transform="translate(35, 30) rotate(180)"><title>slot3</title><path d="m 0,0 0,4 -3,0 0,5 3,0 0,5 3.4000000000000004,0 0,-0.8 1.6,0 0,0.8 2,0 0,2 -2,0 0,0.8 -1.6,0 0,-0.8 -3.4000000000000004,0 0,5 -3,0 0,5 3,0 0,4" id="path30514" style="fill: none; stroke: rgb(255, 0, 0); stroke-width: 0.2; stroke-linecap: butt; stroke-linejoin: miter; stroke-miterlimit: 4; stroke-opacity: 1; stroke-dasharray: none;"/></g><g transform="translate(35, 60) rotate(180)"><title>slot4</title><path d="m 0,0 0,4 -3,0 0,5 3,0 0,5 3.4000000000000004,0 0,-0.8 1.6,0 0,0.8 2,0 0,2 -2,0 0,0.8 -1.6,0 0,-0.8 -3.4000000000000004,0 0,5 -3,0 0,5 3,0 0,4" id="path30514" style="fill: none; stroke: rgb(255, 0, 0); stroke-width: 0.2; stroke-linecap: butt; stroke-linejoin: miter; stroke-miterlimit: 4; stroke-opacity: 1; stroke-dasharray: none;"/></g><g transform="translate(17.5, 6)"><title>servoMount</title><rect x="-6.25" y="0" width="12.5" height="23" style="fill: none; stroke: rgb(255, 0, 0); stroke-width: 0.2; stroke-linecap: butt; stroke-linejoin: miter; stroke-miterlimit: 4; stroke-opacity: 1; stroke-dasharray: none;"/>
<circle cx="0" cy="-2.5" r="1" id="path30514" style="fill: none; stroke: rgb(255, 0, 0); stroke-width: 0.2; stroke-linecap: butt; stroke-linejoin: miter; stroke-miterlimit: 4; stroke-opacity: 1; stroke-dasharray: none;"/>
<circle cx="0" cy="25.5" r="1" id="path30514" style="fill: none; stroke: rgb(255, 0, 0); stroke-width: 0.2; stroke-linecap: butt; stroke-linejoin: miter; stroke-miterlimit: 4; stroke-opacity: 1; stroke-dasharray: none;"/></g></g><g transform="translate(6.38, 8.58)"><title>bodySide</title><rect x="-1.5" y="0" width="44" height="60" style="fill: none; stroke: rgb(255, 0, 0); stroke-width: 0.2; stroke-linecap: butt; stroke-linejoin: miter; stroke-miterlimit: 4; stroke-opacity: 1; stroke-dasharray: none;"/>

<circle cx="20.5" cy="49.5" r="1.5" id="path30514" style="fill: none; stroke: rgb(255, 0, 0); stroke-width: 0.2; stroke-linecap: butt; stroke-linejoin: miter; stroke-miterlimit: 4; stroke-opacity: 1; stroke-dasharray: none;"/>

<circle cx="20.5" cy="39" r="1.5" id="path30514" style="fill: none; stroke: rgb(255, 0, 0); stroke-width: 0.2; stroke-linecap: butt; stroke-linejoin: miter; stroke-miterlimit: 4; stroke-opacity: 1; stroke-dasharray: none;"/><g transform="translate(0)"><title>hole1</title><rect x="0" y="4" width="3" height="5" style="fill: none; stroke: rgb(255, 0, 0); stroke-width: 0.2; stroke-linecap: butt; stroke-linejoin: miter; stroke-miterlimit: 4; stroke-opacity: 1; stroke-dasharray: none;"/>
<circle cx="1.5" cy="15" r="1" id="path30514" style="fill: none; stroke: rgb(255, 0, 0); stroke-width: 0.2; stroke-linecap: butt; stroke-linejoin: miter; stroke-miterlimit: 4; stroke-opacity: 1; stroke-dasharray: none;"/>
<rect x="0" y="21" width="3" height="5" style="fill: none; stroke: rgb(255, 0, 0); stroke-width: 0.2; stroke-linecap: butt; stroke-linejoin: miter; stroke-miterlimit: 4; stroke-opacity: 1; stroke-dasharray: none;"/></g><g transform="translate(38)"><title>hole2</title><rect x="0" y="4" width="3" height="5" style="fill: none; stroke: rgb(255, 0, 0); stroke-width: 0.2; stroke-linecap: butt; stroke-linejoin: miter; stroke-miterlimit: 4; stroke-opacity: 1; stroke-dasharray: none;"/>
<circle cx="1.5" cy="15" r="1" id="path30514" style="fill: none; stroke: rgb(255, 0, 0); stroke-width: 0.2; stroke-linecap: butt; stroke-linejoin: miter; stroke-miterlimit: 4; stroke-opacity: 1; stroke-dasharray: none;"/>
<rect x="0" y="21" width="3" height="5" style="fill: none; stroke: rgb(255, 0, 0); stroke-width: 0.2; stroke-linecap: butt; stroke-linejoin: miter; stroke-miterlimit: 4; stroke-opacity: 1; stroke-dasharray: none;"/></g><g transform="translate(0, 30)"><title>hole3</title><rect x="0" y="4" width="3" height="5" style="fill: none; stroke: rgb(255, 0, 0); stroke-width: 0.2; stroke-linecap: butt; stroke-linejoin: miter; stroke-miterlimit: 4; stroke-opacity: 1; stroke-dasharray: none;"/>
<circle cx="1.5" cy="15" r="1" id="path30514" style="fill: none; stroke: rgb(255, 0, 0); stroke-width: 0.2; stroke-linecap: butt; stroke-linejoin: miter; stroke-miterlimit: 4; stroke-opacity: 1; stroke-dasharray: none;"/>
<rect x="0" y="21" width="3" height="5" style="fill: none; stroke: rgb(255, 0, 0); stroke-width: 0.2; stroke-linecap: butt; stroke-linejoin: miter; stroke-miterlimit: 4; stroke-opacity: 1; stroke-dasharray: none;"/></g><g transform="translate(38, 30)"><title>hole4</title><rect x="0" y="4" width="3" height="5" style="fill: none; stroke: rgb(255, 0, 0); stroke-width: 0.2; stroke-linecap: butt; stroke-linejoin: miter; stroke-miterlimit: 4; stroke-opacity: 1; stroke-dasharray: none;"/>
<circle cx="1.5" cy="15" r="1" id="path30514" style="fill: none; stroke: rgb(255, 0, 0); stroke-width: 0.2; stroke-linecap: butt; stroke-linejoin: miter; stroke-miterlimit: 4; stroke-opacity: 1; stroke-dasharray: none;"/>
<rect x="0" y="21" width="3" height="5" style="fill: none; stroke: rgb(255, 0, 0); stroke-width: 0.2; stroke-linecap: butt; stroke-linejoin: miter; stroke-miterlimit: 4; stroke-opacity: 1; stroke-dasharray: none;"/></g><g transform="translate(20.5, 6)"><title>servoMount</title><rect x="-6.25" y="0" width="12.5" height="23" style="fill: none; stroke: rgb(255, 0, 0); stroke-width: 0.2; stroke-linecap: butt; stroke-linejoin: miter; stroke-miterlimit: 4; stroke-opacity: 1; stroke-dasharray: none;"/>
<circle cx="0" cy="-2.5" r="1" id="path30514" style="fill: none; stroke: rgb(255, 0, 0); stroke-width: 0.2; stroke-linecap: butt; stroke-linejoin: miter; stroke-miterlimit: 4; stroke-opacity: 1; stroke-dasharray: none;"/>
<circle cx="0" cy="25.5" r="1" id="path30514" style="fill: none; stroke: rgb(255, 0, 0); stroke-width: 0.2; stroke-linecap: butt; stroke-linejoin: miter; stroke-miterlimit: 4; stroke-opacity: 1; stroke-dasharray: none;"/></g><g transform="translate(20.5, 30)"><title>ottantottoholes</title><circle cx="-10.125" cy="21.5" r="1.5" id="path30514" style="fill: none; stroke: rgb(255, 0, 0); stroke-width: 0.2; stroke-linecap: butt; stroke-linejoin: miter; stroke-miterlimit: 4; stroke-opacity: 1; stroke-dasharray: none;"/>
<circle cx="10.125" cy="21.5" r="1.5" id="path30514" style="fill: none; stroke: rgb(255, 0, 0); stroke-width: 0.2; stroke-linecap: butt; stroke-linejoin: miter; stroke-miterlimit: 4; stroke-opacity: 1; stroke-dasharray: none;"/>
<circle cx="-10.125" cy="-21.5" r="1.5" id="path30514" style="fill: none; stroke: rgb(255, 0, 0); stroke-width: 0.2; stroke-linecap: butt; stroke-linejoin: miter; stroke-miterlimit: 4; stroke-opacity: 1; stroke-dasharray: none;"/>
<circle cx="10.125" cy="-21.5" r="1.5" id="path30514" style="fill: none; stroke: rgb(255, 0, 0); stroke-width: 0.2; stroke-linecap: butt; stroke-linejoin: miter; stroke-miterlimit: 4; stroke-opacity: 1; stroke-dasharray: none;"/></g></g><title/><title/><g transform="translate(50.3, 108) rotate(0)"><title>bracketSide2</title><path d="m 0,0 0,4 8.5,29 a 12,12 0 0 0 23,0 m0,0 8.5,-29 0,-4" style="fill: none; stroke: rgb(255, 0, 0); stroke-width: 0.2; stroke-linecap: butt; stroke-linejoin: miter; stroke-miterlimit: 4; stroke-opacity: 1; stroke-dasharray: none;"/><g transform="translate(40) rotate(90)"><title>slot</title><path d="m 0,0 0,9 -3,0 0,5 3,0 0,5 3.4000000000000004,0 0,-0.8 1.6,0 0,0.8 2,0 0,2 -2,0 0,0.8 -1.6,0 0,-0.8 -3.4000000000000004,0 0,5 -3,0 0,5 3,0 0,9" id="path30514" style="fill: none; stroke: rgb(255, 0, 0); stroke-width: 0.2; stroke-linecap: butt; stroke-linejoin: miter; stroke-miterlimit: 4; stroke-opacity: 1; stroke-dasharray: none;"/></g><g transform="translate(10, 19.6)"><title>holes</title><circle cx="10" cy="0" r="1" id="path30514" style="fill: none; stroke: rgb(255, 0, 0); stroke-width: 0.2; stroke-linecap: butt; stroke-linejoin: miter; stroke-miterlimit: 4; stroke-opacity: 1; stroke-dasharray: none;"/>
<circle cx="0" cy="10" r="1" id="path30514" style="fill: none; stroke: rgb(255, 0, 0); stroke-width: 0.2; stroke-linecap: butt; stroke-linejoin: miter; stroke-miterlimit: 4; stroke-opacity: 1; stroke-dasharray: none;"/>
<circle cx="20" cy="10" r="1" id="path30514" style="fill: none; stroke: rgb(255, 0, 0); stroke-width: 0.2; stroke-linecap: butt; stroke-linejoin: miter; stroke-miterlimit: 4; stroke-opacity: 1; stroke-dasharray: none;"/>
<circle cx="10" cy="20" r="1" id="path30514" style="fill: none; stroke: rgb(255, 0, 0); stroke-width: 0.2; stroke-linecap: butt; stroke-linejoin: miter; stroke-miterlimit: 4; stroke-opacity: 1; stroke-dasharray: none;"/>
<circle cx="10" cy="10" r="1.5" id="path30514" style="fill: none; stroke: rgb(255, 0, 0); stroke-width: 0.2; stroke-linecap: butt; stroke-linejoin: miter; stroke-miterlimit: 4; stroke-opacity: 1; stroke-dasharray: none;"/>
</g></g><g transform="translate(90.7, 51.3) rotate(90)"><title>bracketTop</title><rect x="-1.5" y="0" width="54" height="40" style="fill: none; stroke: rgb(255, 0, 0); stroke-width: 0.2; stroke-linecap: butt; stroke-linejoin: miter; stroke-miterlimit: 4; stroke-opacity: 1; stroke-dasharray: none;"/><g transform="translate(0)"><title>hole</title><rect x="0" y="9" width="3" height="5" style="fill: none; stroke: rgb(255, 0, 0); stroke-width: 0.2; stroke-linecap: butt; stroke-linejoin: miter; stroke-miterlimit: 4; stroke-opacity: 1; stroke-dasharray: none;"/>
<circle cx="1.5" cy="20" r="1" id="path30514" style="fill: none; stroke: rgb(255, 0, 0); stroke-width: 0.2; stroke-linecap: butt; stroke-linejoin: miter; stroke-miterlimit: 4; stroke-opacity: 1; stroke-dasharray: none;"/>
<rect x="0" y="26" width="3" height="5" style="fill: none; stroke: rgb(255, 0, 0); stroke-width: 0.2; stroke-linecap: butt; stroke-linejoin: miter; stroke-miterlimit: 4; stroke-opacity: 1; stroke-dasharray: none;"/></g><g transform="translate(48)"><title>hole2</title><rect x="0" y="9" width="3" height="5" style="fill: none; stroke: rgb(255, 0, 0); stroke-width: 0.2; stroke-linecap: butt; stroke-linejoin: miter; stroke-miterlimit: 4; stroke-opacity: 1; stroke-dasharray: none;"/>
<circle cx="1.5" cy="20" r="1" id="path30514" style="fill: none; stroke: rgb(255, 0, 0); stroke-width: 0.2; stroke-linecap: butt; stroke-linejoin: miter; stroke-miterlimit: 4; stroke-opacity: 1; stroke-dasharray: none;"/>
<rect x="0" y="26" width="3" height="5" style="fill: none; stroke: rgb(255, 0, 0); stroke-width: 0.2; stroke-linecap: butt; stroke-linejoin: miter; stroke-miterlimit: 4; stroke-opacity: 1; stroke-dasharray: none;"/></g><g transform="translate(15.5, 10)"><title>servoholes</title><circle cx="10" cy="0" r="1" id="path30514" style="fill: none; stroke: rgb(255, 0, 0); stroke-width: 0.2; stroke-linecap: butt; stroke-linejoin: miter; stroke-miterlimit: 4; stroke-opacity: 1; stroke-dasharray: none;"/>
<circle cx="0" cy="10" r="1" id="path30514" style="fill: none; stroke: rgb(255, 0, 0); stroke-width: 0.2; stroke-linecap: butt; stroke-linejoin: miter; stroke-miterlimit: 4; stroke-opacity: 1; stroke-dasharray: none;"/>
<circle cx="20" cy="10" r="1" id="path30514" style="fill: none; stroke: rgb(255, 0, 0); stroke-width: 0.2; stroke-linecap: butt; stroke-linejoin: miter; stroke-miterlimit: 4; stroke-opacity: 1; stroke-dasharray: none;"/>
<circle cx="10" cy="20" r="1" id="path30514" style="fill: none; stroke: rgb(255, 0, 0); stroke-width: 0.2; stroke-linecap: butt; stroke-linejoin: miter; stroke-miterlimit: 4; stroke-opacity: 1; stroke-dasharray: none;"/>
<circle cx="10" cy="10" r="1.5" id="path30514" style="fill: none; stroke: rgb(255, 0, 0); stroke-width: 0.2; stroke-linecap: butt; stroke-linejoin: miter; stroke-miterlimit: 4; stroke-opacity: 1; stroke-dasharray: none;"/>
</g><g transform="translate(0)"><title>holes</title><circle cx="8" cy="6" r="1.5" id="path30514" style="fill: none; stroke: rgb(255, 0, 0); stroke-width: 0.2; stroke-linecap: butt; stroke-linejoin: miter; stroke-miterlimit: 4; stroke-opacity: 1; stroke-dasharray: none;"/>

<circle cx="44" cy="6" r="1.5" id="path30514" style="fill: none; stroke: rgb(255, 0, 0); stroke-width: 0.2; stroke-linecap: butt; stroke-linejoin: miter; stroke-miterlimit: 4; stroke-opacity: 1; stroke-dasharray: none;"/>
<circle cx="8" cy="34" r="1.5" id="path30514" style="fill: none; stroke: rgb(255, 0, 0); stroke-width: 0.2; stroke-linecap: butt; stroke-linejoin: miter; stroke-miterlimit: 4; stroke-opacity: 1; stroke-dasharray: none;"/>
<circle cx="44" cy="34" r="1.5" id="path30514" style="fill: none; stroke: rgb(255, 0, 0); stroke-width: 0.2; stroke-linecap: butt; stroke-linejoin: miter; stroke-miterlimit: 4; stroke-opacity: 1; stroke-dasharray: none;"/></g></g><g transform="translate(90.6, 44.8) rotate(180)"><title>bracketSide1</title><path d="m 0,0 0,4 8.5,29 a 12,12 0 0 0 23,0 m0,0 8.5,-29 0,-4" style="fill: none; stroke: rgb(255, 0, 0); stroke-width: 0.2; stroke-linecap: butt; stroke-linejoin: miter; stroke-miterlimit: 4; stroke-opacity: 1; stroke-dasharray: none;"/><g transform="translate(40) rotate(90)"><title>slot</title><path d="m 0,0 0,9 -3,0 0,5 3,0 0,5 3.4000000000000004,0 0,-0.8 1.6,0 0,0.8 2,0 0,2 -2,0 0,0.8 -1.6,0 0,-0.8 -3.4000000000000004,0 0,5 -3,0 0,5 3,0 0,9" id="path30514" style="fill: none; stroke: rgb(255, 0, 0); stroke-width: 0.2; stroke-linecap: butt; stroke-linejoin: miter; stroke-miterlimit: 4; stroke-opacity: 1; stroke-dasharray: none;"/></g><g transform="translate(10, 19.6)"><title>holes</title><circle cx="10" cy="0" r="1" id="path30514" style="fill: none; stroke: rgb(255, 0, 0); stroke-width: 0.2; stroke-linecap: butt; stroke-linejoin: miter; stroke-miterlimit: 4; stroke-opacity: 1; stroke-dasharray: none;"/>
<circle cx="0" cy="10" r="1" id="path30514" style="fill: none; stroke: rgb(255, 0, 0); stroke-width: 0.2; stroke-linecap: butt; stroke-linejoin: miter; stroke-miterlimit: 4; stroke-opacity: 1; stroke-dasharray: none;"/>
<circle cx="20" cy="10" r="1" id="path30514" style="fill: none; stroke: rgb(255, 0, 0); stroke-width: 0.2; stroke-linecap: butt; stroke-linejoin: miter; stroke-miterlimit: 4; stroke-opacity: 1; stroke-dasharray: none;"/>
<circle cx="10" cy="20" r="1" id="path30514" style="fill: none; stroke: rgb(255, 0, 0); stroke-width: 0.2; stroke-linecap: butt; stroke-linejoin: miter; stroke-miterlimit: 4; stroke-opacity: 1; stroke-dasharray: none;"/>
<circle cx="10" cy="10" r="1.5" id="path30514" style="fill: none; stroke: rgb(255, 0, 0); stroke-width: 0.2; stroke-linecap: butt; stroke-linejoin: miter; stroke-miterlimit: 4; stroke-opacity: 1; stroke-dasharray: none;"/>
</g></g><g transform="translate(90.1)"><title>UniversalJoint</title><title>UniversalJoint</title><desc>Pan-tilt or X-Y joint using two servo's. This joint can be used as camera setup, or as joint in a robot snake, etc.</desc><g transform="translate(8.73, 66.2)"><title>bodyTop</title><path d="m 0,0 35,0" id="path30514" style="fill: none; stroke: rgb(255, 0, 0); stroke-width: 0.2; stroke-linecap: butt; stroke-linejoin: miter; stroke-miterlimit: 4; stroke-opacity: 1; stroke-dasharray: none;"/>
<path d="m 0,60 35,0" id="path30514" style="fill: none; stroke: rgb(255, 0, 0); stroke-width: 0.2; stroke-linecap: butt; stroke-linejoin: miter; stroke-miterlimit: 4; stroke-opacity: 1; stroke-dasharray: none;"/>

<circle cx="17.5" cy="49.5" r="1.5" id="path30514" style="fill: none; stroke: rgb(255, 0, 0); stroke-width: 0.2; stroke-linecap: butt; stroke-linejoin: miter; stroke-miterlimit: 4; stroke-opacity: 1; stroke-dasharray: none;"/>

<circle cx="17.5" cy="39" r="1.5" id="path30514" style="fill: none; stroke: rgb(255, 0, 0); stroke-width: 0.2; stroke-linecap: butt; stroke-linejoin: miter; stroke-miterlimit: 4; stroke-opacity: 1; stroke-dasharray: none;"/><g transform="translate(0)"><title>slot</title><path d="m 0,0 0,4 -3,0 0,5 3,0 0,5 3.4000000000000004,0 0,-0.8 1.6,0 0,0.8 2,0 0,2 -2,0 0,0.8 -1.6,0 0,-0.8 -3.4000000000000004,0 0,5 -3,0 0,5 3,0 0,4" id="path30514" style="fill: none; stroke: rgb(255, 0, 0); stroke-width: 0.2; stroke-linecap: butt; stroke-linejoin: miter; stroke-miterlimit: 4; stroke-opacity: 1; stroke-dasharray: none;"/></g><g transform="translate(0, 30)"><title>slot2</title><path d="m 0,0 0,4 -3,0 0,5 3,0 0,5 3.4000000000000004,0 0,-0.8 1.6,0 0,0.8 2,0 0,2 -2,0 0,0.8 -1.6,0 0,-0.8 -3.4000000000000004,0 0,5 -3,0 0,5 3,0 0,4" id="path30514" style="fill: none; stroke: rgb(255, 0, 0); stroke-width: 0.2; stroke-linecap: butt; stroke-linejoin: miter; stroke-miterlimit: 4; stroke-opacity: 1; stroke-dasharray: none;"/></g><g transform="translate(35, 30) rotate(180)"><title>slot3</title><path d="m 0,0 0,4 -3,0 0,5 3,0 0,5 3.4000000000000004,0 0,-0.8 1.6,0 0,0.8 2,0 0,2 -2,0 0,0.8 -1.6,0 0,-0.8 -3.4000000000000004,0 0,5 -3,0 0,5 3,0 0,4" id="path30514" style="fill: none; stroke: rgb(255, 0, 0); stroke-width: 0.2; stroke-linecap: butt; stroke-linejoin: miter; stroke-miterlimit: 4; stroke-opacity: 1; stroke-dasharray: none;"/></g><g transform="translate(35, 60) rotate(180)"><title>slot4</title><path d="m 0,0 0,4 -3,0 0,5 3,0 0,5 3.4000000000000004,0 0,-0.8 1.6,0 0,0.8 2,0 0,2 -2,0 0,0.8 -1.6,0 0,-0.8 -3.4000000000000004,0 0,5 -3,0 0,5 3,0 0,4" id="path30514" style="fill: none; stroke: rgb(255, 0, 0); stroke-width: 0.2; stroke-linecap: butt; stroke-linejoin: miter; stroke-miterlimit: 4; stroke-opacity: 1; stroke-dasharray: none;"/></g><g transform="translate(17.5, 6)"><title>servoMount</title><rect x="-6.25" y="0" width="12.5" height="23" style="fill: none; stroke: rgb(255, 0, 0); stroke-width: 0.2; stroke-linecap: butt; stroke-linejoin: miter; stroke-miterlimit: 4; stroke-opacity: 1; stroke-dasharray: none;"/>
<circle cx="0" cy="-2.5" r="1" id="path30514" style="fill: none; stroke: rgb(255, 0, 0); stroke-width: 0.2; stroke-linecap: butt; stroke-linejoin: miter; stroke-miterlimit: 4; stroke-opacity: 1; stroke-dasharray: none;"/>
<circle cx="0" cy="25.5" r="1" id="path30514" style="fill: none; stroke: rgb(255, 0, 0); stroke-width: 0.2; stroke-linecap: butt; stroke-linejoin: miter; stroke-miterlimit: 4; stroke-opacity: 1; stroke-dasharray: none;"/></g></g><g transform="translate(4.21, 3.63)"><title>bodySide</title><rect x="-1.5" y="0" width="44" height="60" style="fill: none; stroke: rgb(255, 0, 0); stroke-width: 0.2; stroke-linecap: butt; stroke-linejoin: miter; stroke-miterlimit: 4; stroke-opacity: 1; stroke-dasharray: none;"/>

<circle cx="20.5" cy="49.5" r="1.5" id="path30514" style="fill: none; stroke: rgb(255, 0, 0); stroke-width: 0.2; stroke-linecap: butt; stroke-linejoin: miter; stroke-miterlimit: 4; stroke-opacity: 1; stroke-dasharray: none;"/>

<circle cx="20.5" cy="39" r="1.5" id="path30514" style="fill: none; stroke: rgb(255, 0, 0); stroke-width: 0.2; stroke-linecap: butt; stroke-linejoin: miter; stroke-miterlimit: 4; stroke-opacity: 1; stroke-dasharray: none;"/><g transform="translate(0)"><title>hole1</title><rect x="0" y="4" width="3" height="5" style="fill: none; stroke: rgb(255, 0, 0); stroke-width: 0.2; stroke-linecap: butt; stroke-linejoin: miter; stroke-miterlimit: 4; stroke-opacity: 1; stroke-dasharray: none;"/>
<circle cx="1.5" cy="15" r="1" id="path30514" style="fill: none; stroke: rgb(255, 0, 0); stroke-width: 0.2; stroke-linecap: butt; stroke-linejoin: miter; stroke-miterlimit: 4; stroke-opacity: 1; stroke-dasharray: none;"/>
<rect x="0" y="21" width="3" height="5" style="fill: none; stroke: rgb(255, 0, 0); stroke-width: 0.2; stroke-linecap: butt; stroke-linejoin: miter; stroke-miterlimit: 4; stroke-opacity: 1; stroke-dasharray: none;"/></g><g transform="translate(38)"><title>hole2</title><rect x="0" y="4" width="3" height="5" style="fill: none; stroke: rgb(255, 0, 0); stroke-width: 0.2; stroke-linecap: butt; stroke-linejoin: miter; stroke-miterlimit: 4; stroke-opacity: 1; stroke-dasharray: none;"/>
<circle cx="1.5" cy="15" r="1" id="path30514" style="fill: none; stroke: rgb(255, 0, 0); stroke-width: 0.2; stroke-linecap: butt; stroke-linejoin: miter; stroke-miterlimit: 4; stroke-opacity: 1; stroke-dasharray: none;"/>
<rect x="0" y="21" width="3" height="5" style="fill: none; stroke: rgb(255, 0, 0); stroke-width: 0.2; stroke-linecap: butt; stroke-linejoin: miter; stroke-miterlimit: 4; stroke-opacity: 1; stroke-dasharray: none;"/></g><g transform="translate(0, 30)"><title>hole3</title><rect x="0" y="4" width="3" height="5" style="fill: none; stroke: rgb(255, 0, 0); stroke-width: 0.2; stroke-linecap: butt; stroke-linejoin: miter; stroke-miterlimit: 4; stroke-opacity: 1; stroke-dasharray: none;"/>
<circle cx="1.5" cy="15" r="1" id="path30514" style="fill: none; stroke: rgb(255, 0, 0); stroke-width: 0.2; stroke-linecap: butt; stroke-linejoin: miter; stroke-miterlimit: 4; stroke-opacity: 1; stroke-dasharray: none;"/>
<rect x="0" y="21" width="3" height="5" style="fill: none; stroke: rgb(255, 0, 0); stroke-width: 0.2; stroke-linecap: butt; stroke-linejoin: miter; stroke-miterlimit: 4; stroke-opacity: 1; stroke-dasharray: none;"/></g><g transform="translate(38, 30)"><title>hole4</title><rect x="0" y="4" width="3" height="5" style="fill: none; stroke: rgb(255, 0, 0); stroke-width: 0.2; stroke-linecap: butt; stroke-linejoin: miter; stroke-miterlimit: 4; stroke-opacity: 1; stroke-dasharray: none;"/>
<circle cx="1.5" cy="15" r="1" id="path30514" style="fill: none; stroke: rgb(255, 0, 0); stroke-width: 0.2; stroke-linecap: butt; stroke-linejoin: miter; stroke-miterlimit: 4; stroke-opacity: 1; stroke-dasharray: none;"/>
<rect x="0" y="21" width="3" height="5" style="fill: none; stroke: rgb(255, 0, 0); stroke-width: 0.2; stroke-linecap: butt; stroke-linejoin: miter; stroke-miterlimit: 4; stroke-opacity: 1; stroke-dasharray: none;"/></g><g transform="translate(20.5, 6)"><title>servoMount</title><rect x="-6.25" y="0" width="12.5" height="23" style="fill: none; stroke: rgb(255, 0, 0); stroke-width: 0.2; stroke-linecap: butt; stroke-linejoin: miter; stroke-miterlimit: 4; stroke-opacity: 1; stroke-dasharray: none;"/>
<circle cx="0" cy="-2.5" r="1" id="path30514" style="fill: none; stroke: rgb(255, 0, 0); stroke-width: 0.2; stroke-linecap: butt; stroke-linejoin: miter; stroke-miterlimit: 4; stroke-opacity: 1; stroke-dasharray: none;"/>
<circle cx="0" cy="25.5" r="1" id="path30514" style="fill: none; stroke: rgb(255, 0, 0); stroke-width: 0.2; stroke-linecap: butt; stroke-linejoin: miter; stroke-miterlimit: 4; stroke-opacity: 1; stroke-dasharray: none;"/></g><g transform="translate(20.5, 30)"><title>ottantottoholes</title><circle cx="-10.125" cy="21.5" r="1.5" id="path30514" style="fill: none; stroke: rgb(255, 0, 0); stroke-width: 0.2; stroke-linecap: butt; stroke-linejoin: miter; stroke-miterlimit: 4; stroke-opacity: 1; stroke-dasharray: none;"/>
<circle cx="10.125" cy="21.5" r="1.5" id="path30514" style="fill: none; stroke: rgb(255, 0, 0); stroke-width: 0.2; stroke-linecap: butt; stroke-linejoin: miter; stroke-miterlimit: 4; stroke-opacity: 1; stroke-dasharray: none;"/>
<circle cx="-10.125" cy="-21.5" r="1.5" id="path30514" style="fill: none; stroke: rgb(255, 0, 0); stroke-width: 0.2; stroke-linecap: butt; stroke-linejoin: miter; stroke-miterlimit: 4; stroke-opacity: 1; stroke-dasharray: none;"/>
<circle cx="10.125" cy="-21.5" r="1.5" id="path30514" style="fill: none; stroke: rgb(255, 0, 0); stroke-width: 0.2; stroke-linecap: butt; stroke-linejoin: miter; stroke-miterlimit: 4; stroke-opacity: 1; stroke-dasharray: none;"/></g></g><title/><title/><g transform="translate(50.3, 108) rotate(0)"><title>bracketSide2</title><path d="m 0,0 0,4 8.5,29 a 12,12 0 0 0 23,0 m0,0 8.5,-29 0,-4" style="fill: none; stroke: rgb(255, 0, 0); stroke-width: 0.2; stroke-linecap: butt; stroke-linejoin: miter; stroke-miterlimit: 4; stroke-opacity: 1; stroke-dasharray: none;"/><g transform="translate(40) rotate(90)"><title>slot</title><path d="m 0,0 0,9 -3,0 0,5 3,0 0,5 3.4000000000000004,0 0,-0.8 1.6,0 0,0.8 2,0 0,2 -2,0 0,0.8 -1.6,0 0,-0.8 -3.4000000000000004,0 0,5 -3,0 0,5 3,0 0,9" id="path30514" style="fill: none; stroke: rgb(255, 0, 0); stroke-width: 0.2; stroke-linecap: butt; stroke-linejoin: miter; stroke-miterlimit: 4; stroke-opacity: 1; stroke-dasharray: none;"/></g><g transform="translate(10, 19.6)"><title>holes</title><circle cx="10" cy="0" r="1" id="path30514" style="fill: none; stroke: rgb(255, 0, 0); stroke-width: 0.2; stroke-linecap: butt; stroke-linejoin: miter; stroke-miterlimit: 4; stroke-opacity: 1; stroke-dasharray: none;"/>
<circle cx="0" cy="10" r="1" id="path30514" style="fill: none; stroke: rgb(255, 0, 0); stroke-width: 0.2; stroke-linecap: butt; stroke-linejoin: miter; stroke-miterlimit: 4; stroke-opacity: 1; stroke-dasharray: none;"/>
<circle cx="20" cy="10" r="1" id="path30514" style="fill: none; stroke: rgb(255, 0, 0); stroke-width: 0.2; stroke-linecap: butt; stroke-linejoin: miter; stroke-miterlimit: 4; stroke-opacity: 1; stroke-dasharray: none;"/>
<circle cx="10" cy="20" r="1" id="path30514" style="fill: none; stroke: rgb(255, 0, 0); stroke-width: 0.2; stroke-linecap: butt; stroke-linejoin: miter; stroke-miterlimit: 4; stroke-opacity: 1; stroke-dasharray: none;"/>
<circle cx="10" cy="10" r="1.5" id="path30514" style="fill: none; stroke: rgb(255, 0, 0); stroke-width: 0.2; stroke-linecap: butt; stroke-linejoin: miter; stroke-miterlimit: 4; stroke-opacity: 1; stroke-dasharray: none;"/>
</g></g><g transform="translate(90.3, 50.9) rotate(90)"><title>bracketTop</title><rect x="-1.5" y="0" width="54" height="40" style="fill: none; stroke: rgb(255, 0, 0); stroke-width: 0.2; stroke-linecap: butt; stroke-linejoin: miter; stroke-miterlimit: 4; stroke-opacity: 1; stroke-dasharray: none;"/><g transform="translate(0)"><title>hole</title><rect x="0" y="9" width="3" height="5" style="fill: none; stroke: rgb(255, 0, 0); stroke-width: 0.2; stroke-linecap: butt; stroke-linejoin: miter; stroke-miterlimit: 4; stroke-opacity: 1; stroke-dasharray: none;"/>
<circle cx="1.5" cy="20" r="1" id="path30514" style="fill: none; stroke: rgb(255, 0, 0); stroke-width: 0.2; stroke-linecap: butt; stroke-linejoin: miter; stroke-miterlimit: 4; stroke-opacity: 1; stroke-dasharray: none;"/>
<rect x="0" y="26" width="3" height="5" style="fill: none; stroke: rgb(255, 0, 0); stroke-width: 0.2; stroke-linecap: butt; stroke-linejoin: miter; stroke-miterlimit: 4; stroke-opacity: 1; stroke-dasharray: none;"/></g><g transform="translate(48)"><title>hole2</title><rect x="0" y="9" width="3" height="5" style="fill: none; stroke: rgb(255, 0, 0); stroke-width: 0.2; stroke-linecap: butt; stroke-linejoin: miter; stroke-miterlimit: 4; stroke-opacity: 1; stroke-dasharray: none;"/>
<circle cx="1.5" cy="20" r="1" id="path30514" style="fill: none; stroke: rgb(255, 0, 0); stroke-width: 0.2; stroke-linecap: butt; stroke-linejoin: miter; stroke-miterlimit: 4; stroke-opacity: 1; stroke-dasharray: none;"/>
<rect x="0" y="26" width="3" height="5" style="fill: none; stroke: rgb(255, 0, 0); stroke-width: 0.2; stroke-linecap: butt; stroke-linejoin: miter; stroke-miterlimit: 4; stroke-opacity: 1; stroke-dasharray: none;"/></g><g transform="translate(15.5, 10)"><title>servoholes</title><circle cx="10" cy="0" r="1" id="path30514" style="fill: none; stroke: rgb(255, 0, 0); stroke-width: 0.2; stroke-linecap: butt; stroke-linejoin: miter; stroke-miterlimit: 4; stroke-opacity: 1; stroke-dasharray: none;"/>
<circle cx="0" cy="10" r="1" id="path30514" style="fill: none; stroke: rgb(255, 0, 0); stroke-width: 0.2; stroke-linecap: butt; stroke-linejoin: miter; stroke-miterlimit: 4; stroke-opacity: 1; stroke-dasharray: none;"/>
<circle cx="20" cy="10" r="1" id="path30514" style="fill: none; stroke: rgb(255, 0, 0); stroke-width: 0.2; stroke-linecap: butt; stroke-linejoin: miter; stroke-miterlimit: 4; stroke-opacity: 1; stroke-dasharray: none;"/>
<circle cx="10" cy="20" r="1" id="path30514" style="fill: none; stroke: rgb(255, 0, 0); stroke-width: 0.2; stroke-linecap: butt; stroke-linejoin: miter; stroke-miterlimit: 4; stroke-opacity: 1; stroke-dasharray: none;"/>
<circle cx="10" cy="10" r="1.5" id="path30514" style="fill: none; stroke: rgb(255, 0, 0); stroke-width: 0.2; stroke-linecap: butt; stroke-linejoin: miter; stroke-miterlimit: 4; stroke-opacity: 1; stroke-dasharray: none;"/>
</g></g><g transform="translate(90.6, 44.8) rotate(180)"><title>bracketSide1</title><path d="m 0,0 0,4 8.5,29 a 12,12 0 0 0 23,0 m0,0 8.5,-29 0,-4" style="fill: none; stroke: rgb(255, 0, 0); stroke-width: 0.2; stroke-linecap: butt; stroke-linejoin: miter; stroke-miterlimit: 4; stroke-opacity: 1; stroke-dasharray: none;"/><g transform="translate(40) rotate(90)"><title>slot</title><path d="m 0,0 0,9 -3,0 0,5 3,0 0,5 3.4000000000000004,0 0,-0.8 1.6,0 0,0.8 2,0 0,2 -2,0 0,0.8 -1.6,0 0,-0.8 -3.4000000000000004,0 0,5 -3,0 0,5 3,0 0,9" id="path30514" style="fill: none; stroke: rgb(255, 0, 0); stroke-width: 0.2; stroke-linecap: butt; stroke-linejoin: miter; stroke-miterlimit: 4; stroke-opacity: 1; stroke-dasharray: none;"/></g><g transform="translate(10, 19.6)"><title>holes</title><circle cx="10" cy="0" r="1" id="path30514" style="fill: none; stroke: rgb(255, 0, 0); stroke-width: 0.2; stroke-linecap: butt; stroke-linejoin: miter; stroke-miterlimit: 4; stroke-opacity: 1; stroke-dasharray: none;"/>
<circle cx="0" cy="10" r="1" id="path30514" style="fill: none; stroke: rgb(255, 0, 0); stroke-width: 0.2; stroke-linecap: butt; stroke-linejoin: miter; stroke-miterlimit: 4; stroke-opacity: 1; stroke-dasharray: none;"/>
<circle cx="20" cy="10" r="1" id="path30514" style="fill: none; stroke: rgb(255, 0, 0); stroke-width: 0.2; stroke-linecap: butt; stroke-linejoin: miter; stroke-miterlimit: 4; stroke-opacity: 1; stroke-dasharray: none;"/>
<circle cx="10" cy="20" r="1" id="path30514" style="fill: none; stroke: rgb(255, 0, 0); stroke-width: 0.2; stroke-linecap: butt; stroke-linejoin: miter; stroke-miterlimit: 4; stroke-opacity: 1; stroke-dasharray: none;"/>
<circle cx="10" cy="10" r="1.5" id="path30514" style="fill: none; stroke: rgb(255, 0, 0); stroke-width: 0.2; stroke-linecap: butt; stroke-linejoin: miter; stroke-miterlimit: 4; stroke-opacity: 1; stroke-dasharray: none;"/>
</g></g></g></svg>