<svg xmlns:xlink="http://www.w3.org/1999/xlink" xmlns="http://www.w3.org/2000/svg" width="560mm" height="297mm" viewBox="0 0 560 297" preserveAspectRatio="xMinYMin" style="cursor:pointer;"><undefined/><undefined/><title>Mini-itx box</title><desc/><g name="bottom" transform="translate(6, 6)"> <rect x="0" y="0" width="190" height="190" style="fill:none;stroke:red;"/> <path d="M-6,-6 -6,12 0,12 0,24 -6,24 -6,36 0,36 0,48 -6,48 -6,60 0,60 0,72 -6,72 -6,118 0,118 0,130 -6,130 -6,142 0,142 0,154 -6,154 -6,166 0,166 0,178 -6,178 -6,196 12,196 12,190 24,190 24,196 36,196 36,190 48,190 48,196 60,196 60,190 72,190 72,196 118,196 118,190 130,190 130,196 142,196 142,190 154,190 154,196 166,196 166,190 178,190 178,196 196,196 196,178 190,178 190,166 196,166 196,154 190,154 190,142 196,142 196,130 190,130 190,118 196,118 196,72 190,72 190,60 196,60 196,48 190,48 190,36 196,36 196,24 190,24 190,12 196,12 196,-6 178,-6 178,0 166,0 166,-6 154,-6 154,0 142,0 142,-6 130,-6 130,0 118,0 118,-6 72,-6 72,0 60,0 60,-6 48,-6 48,0 36,0 36,-6 24,-6 24,0 12,0 12,-6 Z" style="fill:none;stroke:black;"/> <g name="pcb" transform="translate(19 10)/2})"> <rect x="0" y="0" width="170" height="170" style="fill:none;stroke:green;"/> <circle cx="4.76" cy="6.17" r="2.5" style="fill:none;stroke:black;"/> <circle cx="158.84" cy="6.17" r="2.5" style="fill:none;stroke:black;"/> <circle cx="4.76" cy="163.65" r="2.5" style="fill:none;stroke:black;"/> <circle cx="132.22" cy="163.65" r="2.5" style="fill:none;stroke:black;"/> <rect x="35" y="33" rx="3" ry="3" width="100" height="4" style="fill:none;stroke:black;"/> <rect x="35" y="58" rx="3" ry="3" width="100" height="4" style="fill:none;stroke:black;"/> <rect x="35" y="83" rx="3" ry="3" width="100" height="4" style="fill:none;stroke:black;"/> <rect x="35" y="108" rx="3" ry="3" width="100" height="4" style="fill:none;stroke:black;"/> <rect x="35" y="133" rx="3" ry="3" width="100" height="4" style="fill:none;stroke:black;"/> <title>board</title></g> <rect x="0" y="65" width="10" height="60" style="fill:none;stroke:green;stroke-dasharray:1,3;"/> <title>bottom</title></g><undefined/><g name="back" transform="translate(208, 6)"> <rect x="0" y="0" width="65" height="190" style="fill:none;stroke:red;"/> <path d="M0,-6 0,12 -6,12 -6,24 0,24 0,36 -6,36 -6,48 0,48 0,60 -6,60 -6,72 0,72 0,118 -6,118 -6,130 0,130 0,142 -6,142 -6,154 0,154 0,166 -6,166 -6,178 0,178 0,196 12,196 12,190 24,190 24,196 41,196 41,190 53,190 53,196 65,196 65,178 71,178 71,166 65,166 65,154 71,154 71,142 65,142 65,130 71,130 71,118 65,118 65,72 71,72 71,60 65,60 65,48 71,48 71,36 65,36 65,24 71,24 71,12 65,12 65,-6 53,-6 53,0 41,0 41,-6 24,-6 24,0 12,0 12,-6 Z" style="fill:none;stroke:black;"/> <g name="panel" transform="translate(3 22)/2+12})"> <rect x="0" y="0" width="49" height="163" style="fill:none;stroke:green;"/> <rect x="2" y="2" width="45" height="159" style="fill:none;stroke:black;"/> <title>panel</title></g> <circle cx="15" cy="11" r="4" style="fill:none;stroke:black;"/> <circle cx="28" cy="11" r="1.5" style="fill:none;stroke:black;"/> <circle cx="40" cy="11" r="3.5" style="fill:none;stroke:black;"/> <title>back</title></g><undefined/><g name="top" transform="translate(285, 6)"> <rect x="0" y="0" width="190" height="190" style="fill:none;stroke:red;"/> <path d="M-6,-6 -6,12 0,12 0,24 -6,24 -6,36 0,36 0,48 -6,48 -6,60 0,60 0,72 -6,72 -6,118 0,118 0,130 -6,130 -6,142 0,142 0,154 -6,154 -6,166 0,166 0,178 -6,178 -6,196 12,196 12,190 24,190 24,196 36,196 36,190 48,190 48,196 60,196 60,190 72,190 72,196 118,196 118,190 130,190 130,196 142,196 142,190 154,190 154,196 166,196 166,190 178,190 178,196 196,196 196,178 190,178 190,166 196,166 196,154 190,154 190,142 196,142 196,130 190,130 190,118 196,118 196,72 190,72 190,60 196,60 196,48 190,48 190,36 196,36 196,24 190,24 190,12 196,12 196,-6 178,-6 178,0 166,0 166,-6 154,-6 154,0 142,0 142,-6 130,-6 130,0 118,0 118,-6 72,-6 72,0 60,0 60,-6 48,-6 48,0 36,0 36,-6 24,-6 24,0 12,0 12,-6 Z" style="fill:none;stroke:black;"/> <pressfit x1="" y1="" x2="" y2="" side="left/right" type="A/B" millsize="0" style="fill:none;stroke:black;"/> <g name="hdd2.5" transform="translate(24 10)/2})"> <rect x="0" y="0" rx="3" ry="3" width="100.2" height="69.85" style="fill:none;stroke:green;"/> <circle cx="9.6" cy="4.0" r="1.5" style="fill:none;stroke:black;"/> <circle cx="86.2" cy="4.07" r="1.5" style="fill:none;stroke:black;"/> <circle cx="9.6" cy="65.79" r="1.5" style="fill:none;stroke:black;"/> <circle cx="86.2" cy="65.79" r="1.5" style="fill:none;stroke:black;"/> <title>hd</title></g> <rect x="1" y="10" width="170" height="170" style="fill:none;stroke:green;stroke-dasharray:1,3;"/> <rect x="180" y="65" width="10" height="60" style="fill:none;stroke:green;stroke-dasharray:1,3;"/> <title>top</title></g><undefined/><g name="front" transform="translate(487, 6)"> <rect x="0" y="0" width="65" height="190" style="fill:none;stroke:red;"/> <path d="M0,-6 0,12 -6,12 -6,24 0,24 0,36 -6,36 -6,48 0,48 0,60 -6,60 -6,72 0,72 0,118 -6,118 -6,130 0,130 0,142 -6,142 -6,154 0,154 0,166 -6,166 -6,178 0,178 0,196 12,196 12,190 24,190 24,196 41,196 41,190 53,190 53,196 65,196 65,178 71,178 71,166 65,166 65,154 71,154 71,142 65,142 65,130 71,130 71,118 65,118 65,72 71,72 71,60 65,60 65,48 71,48 71,36 65,36 65,24 71,24 71,12 65,12 65,-6 53,-6 53,0 41,0 41,-6 24,-6 24,0 12,0 12,-6 Z" style="fill:none;stroke:black;"/> <g name="fan" transform="translate(2.5, 65)"> <rect x="0" y="0" rx="3" ry="3" width="60" height="60" style="fill:none;stroke:green;"/> <circle cx="30" cy="30" r="25" style="fill:none;stroke:black;"/> <circle cx="6" cy="6" r="2.5" style="fill:none;stroke:black;"/> <circle cx="6" cy="54" r="2.5" style="fill:none;stroke:black;"/> <circle cx="54" cy="6" r="2.5" style="fill:none;stroke:black;"/> <circle cx="54" cy="54" r="2.5" style="fill:none;stroke:black;"/> <title>fan</title></g> <title>front</title></g><undefined/><g name="left" transform="translate(6, 208)"> <rect x="0" y="0" width="190" height="65" style="fill:none;stroke:red;"/> <path d="M0,0 0,12 -6,12 -6,24 0,24 0,41 -6,41 -6,53 0,53 0,65 12,65 12,71 24,71 24,65 36,65 36,71 48,71 48,65 60,65 60,71 72,71 72,65 118,65 118,71 130,71 130,65 142,65 142,71 154,71 154,65 166,65 166,71 178,71 178,65 190,65 190,53 196,53 196,41 190,41 190,24 196,24 196,12 190,12 190,0 178,0 178,-6 166,-6 166,0 154,0 154,-6 142,-6 142,0 130,0 130,-6 118,-6 118,0 72,0 72,-6 60,-6 60,0 48,0 48,-6 36,-6 36,0 24,0 24,-6 12,-6 12,0 Z" style="fill:none;stroke:black;"/> <title>side1</title></g><undefined/><g name="right" transform="translate(285, 208)"> <rect x="0" y="0" width="190" height="65" style="fill:none;stroke:red;"/> <path d="M0,0 0,12 -6,12 -6,24 0,24 0,41 -6,41 -6,53 0,53 0,65 12,65 12,71 24,71 24,65 36,65 36,71 48,71 48,65 60,65 60,71 72,71 72,65 118,65 118,71 130,71 130,65 142,65 142,71 154,71 154,65 166,65 166,71 178,71 178,65 190,65 190,53 196,53 196,41 190,41 190,24 196,24 196,12 190,12 190,0 178,0 178,-6 166,-6 166,0 154,0 154,-6 142,-6 142,0 130,0 130,-6 118,-6 118,0 72,0 72,-6 60,-6 60,0 48,0 48,-6 36,-6 36,0 24,0 24,-6 12,-6 12,0 Z" style="fill:none;stroke:black;"/> <title>side2</title></g><undefined/><title>new</title><title/><title/><title></title></svg>